<svg xmlns="http://www.w3.org/2000/svg" version="1.1" xmlns:xlink="http://www.w3.org/1999/xlink" xmlns:svgjs="http://svgjs.dev/svgjs" width="1000" height="209" viewBox="0 0 1000 209"><g transform="matrix(1,0,0,1,-0.6060429418252511,0.28757835388890385)"><svg viewBox="0 0 396 83" data-background-color="#2c2c2c" preserveAspectRatio="xMidYMid meet" height="209" width="1000" xmlns="http://www.w3.org/2000/svg" xmlns:xlink="http://www.w3.org/1999/xlink"><g id="tight-bounds" transform="matrix(1,0,0,1,0.2399930049627983,-0.11420575776449482)"><svg viewBox="0 0 395.52 83.22841151552899" height="83.22841151552899" width="395.52"><g><svg viewBox="0 0 536.0490468602088 112.7996325459864" height="83.22841151552899" width="395.52"><g><rect width="4.469535738290686" height="97.94468817307067" x="124.35915578607872" y="7.427472186457862" fill="#ff851b" opacity="1" stroke-width="0" stroke="transparent" fill-opacity="1" class="rect-o-0" data-fill-palette-color="primary" rx="1%" id="o-0" data-palette-color="#ff851b"></rect></g><g transform="matrix(1,0,0,1,140.5290468602089,15.589529534213753)"><svg viewBox="0 0 395.52 81.62057347755889" height="81.62057347755889" width="395.52"><g id="textblocktransform"><svg viewBox="0 0 395.52 81.62057347755889" height="81.62057347755889" width="395.52" id="textblock"><g><svg viewBox="0 0 395.52 49.56181626187961" height="49.56181626187961" width="395.52"><g transform="matrix(1,0,0,1,0,0)"><svg width="395.52" viewBox="5.699999809265137 -35.29999923706055 284.0799865722656 35.599998474121094" height="49.56181626187961" data-palette-color="#ff851b"><path d="M31.3-35L34.95-35 34.95 0 31.9 0 9.4-28.4 9.4 0 5.7 0 5.7-35 8.75-35 31.3-6.6 31.3-35ZM46.35 0L46.35-35 60.6-35Q66.15-35 70.4-32.77 74.65-30.55 77-26.58 79.35-22.6 79.35-17.5L79.35-17.5Q79.35-12.4 77-8.43 74.65-4.45 70.4-2.23 66.15 0 60.6 0L60.6 0 46.35 0ZM50.05-3.2L60.4-3.2Q65-3.2 68.45-5.03 71.9-6.85 73.8-10.08 75.7-13.3 75.7-17.5L75.7-17.5Q75.7-21.7 73.8-24.93 71.9-28.15 68.45-29.98 65-31.8 60.4-31.8L60.4-31.8 50.05-31.8 50.05-3.2ZM91.35-3.2L112.4-3.2 112.4 0 87.65 0 87.65-35 111.65-35 111.65-31.8 91.35-31.8 91.35-19.35 109.45-19.35 109.45-16.2 91.35-16.2 91.35-3.2ZM121.09 0L121.09-35 124.79-35 124.79-3.2 144.39-3.2 144.39 0 121.09 0ZM163.99 0.3Q157.19 0.3 153.39-3.6 149.59-7.5 149.59-14.95L149.59-14.95 149.59-35 153.29-35 153.29-15.1Q153.29-9 156.04-6 158.79-3 163.99-3L163.99-3Q169.24-3 171.99-6 174.74-9 174.74-15.1L174.74-15.1 174.74-35 178.34-35 178.34-14.95Q178.34-7.5 174.57-3.6 170.79 0.3 163.99 0.3L163.99 0.3ZM204.69 0.3Q199.49 0.3 195.31-2 191.14-4.3 188.76-8.38 186.39-12.45 186.39-17.5L186.39-17.5Q186.39-22.55 188.76-26.63 191.14-30.7 195.34-33 199.54-35.3 204.74-35.3L204.74-35.3Q208.64-35.3 211.94-34 215.24-32.7 217.54-30.2L217.54-30.2 215.19-27.85Q211.09-32 204.84-32L204.84-32Q200.69-32 197.29-30.1 193.89-28.2 191.96-24.9 190.04-21.6 190.04-17.5L190.04-17.5Q190.04-13.4 191.96-10.1 193.89-6.8 197.29-4.9 200.69-3 204.84-3L204.84-3Q211.14-3 215.19-7.2L215.19-7.2 217.54-4.85Q215.24-2.35 211.91-1.03 208.59 0.3 204.69 0.3L204.69 0.3ZM239.89 0.3Q234.69 0.3 230.51-2 226.34-4.3 223.96-8.38 221.59-12.45 221.59-17.5L221.59-17.5Q221.59-22.55 223.96-26.63 226.34-30.7 230.54-33 234.74-35.3 239.94-35.3L239.94-35.3Q243.84-35.3 247.14-34 250.44-32.7 252.74-30.2L252.74-30.2 250.39-27.85Q246.29-32 240.04-32L240.04-32Q235.89-32 232.49-30.1 229.09-28.2 227.16-24.9 225.24-21.6 225.24-17.5L225.24-17.5Q225.24-13.4 227.16-10.1 229.09-6.8 232.49-4.9 235.89-3 240.04-3L240.04-3Q246.34-3 250.39-7.2L250.39-7.2 252.74-4.85Q250.44-2.35 247.11-1.03 243.79 0.3 239.89 0.3L239.89 0.3ZM285.88 0L281.68-9.35 262.18-9.35 257.98 0 254.13 0 270.13-35 273.78-35 289.78 0 285.88 0ZM263.53-12.35L280.33-12.35 271.93-31.15 263.53-12.35Z" opacity="1" transform="matrix(1,0,0,1,0,0)" fill="#ff851b" class="undefined-text-0" data-fill-palette-color="primary" id="text-0"></path></svg></g></svg></g><g transform="matrix(1,0,0,1,0,61.2621715977191)"><svg viewBox="0 0 232.20979199999996 20.358401879839786" height="20.358401879839786" width="232.20979199999996"><g transform="matrix(1,0,0,1,0,0)"><svg width="232.20979199999996" viewBox="4.78000020980835 -38.650001525878906 561.699951171875 49.25" height="20.358401879839786" data-palette-color="#515151"><path d="M7.1-26.33L22.25-26.33 22.25-4.23Q22.25 0.18 20.28 3.14 18.3 6.1 14.55 7.9 10.8 9.7 5.48 10.6L5.48 10.6 4.78 7.35Q8.68 6.7 11.68 5.4 14.68 4.1 16.36 1.84 18.05-0.43 18.05-3.95L18.05-3.95 18.05-23 7.1-23 7.1-26.33ZM18.32-38.65L18.32-38.65Q19.73-38.65 20.58-37.8 21.43-36.95 21.43-35.73L21.43-35.73Q21.43-34.45 20.58-33.59 19.73-32.73 18.32-32.73L18.32-32.73Q16.98-32.73 16.15-33.59 15.33-34.45 15.33-35.73L15.33-35.73Q15.33-36.95 16.15-37.8 16.98-38.65 18.32-38.65ZM35.02-26.33L39.22-26.33 39.22-7.68Q39.22-5.08 40.3-3.93 41.37-2.78 43.65-2.78L43.65-2.78Q45.82-2.78 47.76-4.01 49.7-5.25 50.77-6.95L50.77-6.95 50.77-26.33 54.97-26.33 54.97 0 51.4 0 51.05-3.55Q49.5-1.55 47.22-0.49 44.95 0.58 42.62 0.58L42.62 0.58Q38.8 0.58 36.91-1.46 35.02-3.5 35.02-7.18L35.02-7.18 35.02-26.33ZM73.97-2.9L73.97-2.9Q77-2.9 78.76-4.04 80.52-5.18 80.52-7.08L80.52-7.08Q80.52-8.28 80.08-9.15 79.65-10.03 78.3-10.73 76.95-11.43 74.15-12.13L74.15-12.13Q71.42-12.8 69.41-13.69 67.4-14.58 66.28-16 65.17-17.43 65.17-19.7L65.17-19.7Q65.17-21.93 66.43-23.54 67.7-25.15 69.95-26.01 72.2-26.88 75.17-26.88L75.17-26.88Q78.34-26.88 80.71-26.04 83.07-25.2 84.72-23.98L84.72-23.98 82.87-21.13Q81.37-22.15 79.57-22.81 77.77-23.48 75.22-23.48L75.22-23.48Q72.12-23.48 70.82-22.51 69.52-21.55 69.52-20.03L69.52-20.03Q69.52-18.88 70.16-18.11 70.8-17.35 72.32-16.74 73.84-16.13 76.52-15.4L76.52-15.4Q79.09-14.73 81.01-13.78 82.92-12.83 84-11.28 85.07-9.73 85.07-7.28L85.07-7.28Q85.07-4.48 83.47-2.74 81.87-1 79.33-0.21 76.8 0.58 73.97 0.58L73.97 0.58Q70.4 0.58 67.88-0.46 65.37-1.5 63.67-2.98L63.67-2.98 66.07-5.75Q67.62-4.48 69.63-3.69 71.65-2.9 73.97-2.9ZM114.29-4.17L115.92-1.33Q114.57-0.43 112.64 0.08 110.72 0.58 108.87 0.58L108.87 0.58Q104.62 0.58 102.32-1.65 100.02-3.88 100.02-7.38L100.02-7.38 100.02-23.08 93.97-23.08 93.97-26.33 100.02-26.33 100.02-32.3 104.22-32.8 104.22-26.33 113.32-26.33 112.82-23.08 104.22-23.08 104.22-7.43Q104.22-5.23 105.38-4.08 106.54-2.93 109.24-2.93L109.24-2.93Q110.72-2.93 111.97-3.28 113.22-3.63 114.29-4.17L114.29-4.17ZM173.86-18.38L173.86-5.75Q173.86-4.17 174.39-3.45 174.91-2.73 176.01-2.38L176.01-2.38 174.99 0.58Q173.29 0.35 172.01-0.51 170.74-1.38 170.16-3.13L170.16-3.13Q168.74-1.3 166.61-0.36 164.49 0.58 161.91 0.58L161.91 0.58Q157.96 0.58 155.69-1.65 153.41-3.88 153.41-7.55L153.41-7.55Q153.41-11.63 156.59-13.8 159.76-15.98 165.76-15.98L165.76-15.98 169.64-15.98 169.64-18.18Q169.64-21.03 167.98-22.21 166.31-23.4 163.36-23.4L163.36-23.4Q162.06-23.4 160.31-23.09 158.56-22.78 156.51-22.05L156.51-22.05 155.41-25.23Q157.84-26.13 159.96-26.5 162.09-26.88 164.01-26.88L164.01-26.88Q168.94-26.88 171.4-24.59 173.86-22.3 173.86-18.38L173.86-18.38ZM162.99-2.63L162.99-2.63Q164.94-2.63 166.71-3.61 168.49-4.6 169.64-6.35L169.64-6.35 169.64-13.13 165.84-13.13Q161.49-13.13 159.7-11.63 157.91-10.13 157.91-7.6L157.91-7.6Q157.91-5.15 159.18-3.89 160.44-2.63 162.99-2.63ZM189.21 0L185.01 0 185.01-26.33 188.59-26.33 188.91-22.68Q190.51-24.7 192.92-25.79 195.34-26.88 197.61-26.88L197.61-26.88Q201.49-26.88 203.25-24.83 205.01-22.78 205.01-19.13L205.01-19.13 205.01 0 200.81 0 200.81-16.03Q200.81-18.73 200.51-20.39 200.21-22.05 199.26-22.81 198.31-23.58 196.31-23.58L196.31-23.58Q194.76-23.58 193.4-22.9 192.04-22.23 190.97-21.21 189.91-20.2 189.21-19.18L189.21-19.18 189.21 0ZM225.03-26.88L225.03-26.88Q228.76-26.88 231.27-25.19 233.78-23.5 235.05-20.43 236.31-17.35 236.31-13.18L236.31-13.18Q236.31-9.15 235.01-6.05 233.71-2.95 231.2-1.19 228.68 0.58 224.98 0.58L224.98 0.58Q221.28 0.58 218.76-1.13 216.23-2.83 214.95-5.91 213.66-9 213.66-13.13L213.66-13.13Q213.66-17.2 214.96-20.3 216.26-23.4 218.8-25.14 221.33-26.88 225.03-26.88ZM225.03-23.45L225.03-23.45Q221.63-23.45 219.9-20.94 218.16-18.43 218.16-13.13L218.16-13.13Q218.16-7.93 219.87-5.4 221.58-2.88 224.98-2.88L224.98-2.88Q228.38-2.88 230.1-5.4 231.81-7.93 231.81-13.18L231.81-13.18Q231.81-18.43 230.11-20.94 228.41-23.45 225.03-23.45ZM264.28-4.17L265.91-1.33Q264.56-0.43 262.63 0.08 260.71 0.58 258.86 0.58L258.86 0.58Q254.61 0.58 252.31-1.65 250.01-3.88 250.01-7.38L250.01-7.38 250.01-23.08 243.96-23.08 243.96-26.33 250.01-26.33 250.01-32.3 254.21-32.8 254.21-26.33 263.31-26.33 262.81-23.08 254.21-23.08 254.21-7.43Q254.21-5.23 255.37-4.08 256.53-2.93 259.23-2.93L259.23-2.93Q260.71-2.93 261.96-3.28 263.21-3.63 264.28-4.17L264.28-4.17ZM275-36.88L279.2-37.33 279.2-22.73Q280.75-24.8 283.02-25.84 285.28-26.88 287.6-26.88L287.6-26.88Q291.45-26.88 293.23-24.83 295-22.78 295-19.13L295-19.13 295 0 290.8 0 290.8-19.03Q290.8-21.4 289.7-22.49 288.6-23.58 286.25-23.58L286.25-23.58Q284.75-23.58 283.4-22.9 282.05-22.23 280.98-21.23 279.9-20.23 279.2-19.18L279.2-19.18 279.2 0 275 0 275-36.88ZM326-11.68L308.3-11.68Q308.43-8.63 309.48-6.69 310.53-4.75 312.25-3.84 313.98-2.93 316-2.93L316-2.93Q318.03-2.93 319.66-3.53 321.3-4.13 323.03-5.3L323.03-5.3 325-2.53Q323.15-1.07 320.79-0.25 318.43 0.58 315.95 0.58L315.95 0.58Q312.13 0.58 309.43-1.15 306.73-2.88 305.31-5.96 303.9-9.05 303.9-13.13L303.9-13.13Q303.9-17.13 305.33-20.23 306.75-23.33 309.33-25.1 311.9-26.88 315.4-26.88L315.4-26.88Q318.73-26.88 321.13-25.31 323.53-23.75 324.81-20.86 326.1-17.98 326.1-13.98L326.1-13.98Q326.1-13.3 326.08-12.71 326.05-12.13 326-11.68L326-11.68ZM315.45-23.43L315.45-23.43Q312.53-23.43 310.56-21.35 308.6-19.28 308.33-14.93L308.33-14.93 322.05-14.93Q321.98-19.15 320.2-21.29 318.43-23.43 315.45-23.43ZM348.9 0L335.25 0 335.25-3.23 339.35-3.23 339.35-23.1 335.25-23.1 335.25-26.33 342.55-26.33 343.32-20.1Q344.85-23.35 347.02-25.13 349.2-26.9 352.77-26.9L352.77-26.9Q353.87-26.9 354.74-26.74 355.6-26.58 356.5-26.33L356.5-26.33 355.27-22.58Q354.45-22.8 353.77-22.91 353.1-23.03 352.22-23.03L352.22-23.03Q349.2-23.03 347.02-20.88 344.85-18.73 343.55-14.38L343.55-14.38 343.55-3.23 348.9-3.23 348.9 0ZM355.9-17.43L352.45-17.43 352.45-23.15 352.87-26.33 356.5-26.33 355.9-17.43ZM394.99-36.88L399.19-37.33 399.19-22.73Q400.74-24.8 403.01-25.84 405.27-26.88 407.59-26.88L407.59-26.88Q411.44-26.88 413.22-24.83 414.99-22.78 414.99-19.13L414.99-19.13 414.99 0 410.79 0 410.79-19.03Q410.79-21.4 409.69-22.49 408.59-23.58 406.24-23.58L406.24-23.58Q404.74-23.58 403.39-22.9 402.04-22.23 400.97-21.23 399.89-20.23 399.19-19.18L399.19-19.18 399.19 0 394.99 0 394.99-36.88ZM443.84-18.38L443.84-5.75Q443.84-4.17 444.37-3.45 444.89-2.73 445.99-2.38L445.99-2.38 444.97 0.58Q443.27 0.35 441.99-0.51 440.72-1.38 440.14-3.13L440.14-3.13Q438.72-1.3 436.59-0.36 434.47 0.58 431.89 0.58L431.89 0.58Q427.94 0.58 425.67-1.65 423.39-3.88 423.39-7.55L423.39-7.55Q423.39-11.63 426.57-13.8 429.74-15.98 435.74-15.98L435.74-15.98 439.62-15.98 439.62-18.18Q439.62-21.03 437.95-22.21 436.29-23.4 433.34-23.4L433.34-23.4Q432.04-23.4 430.29-23.09 428.54-22.78 426.49-22.05L426.49-22.05 425.39-25.23Q427.82-26.13 429.94-26.5 432.07-26.88 433.99-26.88L433.99-26.88Q438.92-26.88 441.38-24.59 443.84-22.3 443.84-18.38L443.84-18.38ZM432.97-2.63L432.97-2.63Q434.92-2.63 436.69-3.61 438.47-4.6 439.62-6.35L439.62-6.35 439.62-13.13 435.82-13.13Q431.47-13.13 429.68-11.63 427.89-10.13 427.89-7.6L427.89-7.6Q427.89-5.15 429.15-3.89 430.42-2.63 432.97-2.63ZM466.89-3.05L466.89-3.05Q468.86-3.05 470.58-3.7 472.29-4.35 473.74-5.35L473.74-5.35 475.79-2.6Q474.06-1.13 471.64-0.28 469.21 0.58 466.89 0.58L466.89 0.58Q462.96 0.58 460.2-1.11 457.44-2.8 455.99-5.86 454.54-8.93 454.54-13.05L454.54-13.05Q454.54-17 456-20.14 457.46-23.28 460.23-25.08 462.99-26.88 466.94-26.88L466.94-26.88Q469.46-26.88 471.68-26.11 473.89-25.35 475.74-23.83L475.74-23.83 473.69-21.03Q472.01-22.2 470.33-22.79 468.64-23.38 466.89-23.38L466.89-23.38Q463.49-23.38 461.29-20.83 459.09-18.28 459.09-13.05L459.09-13.05Q459.09-9.55 460.1-7.34 461.11-5.13 462.88-4.09 464.64-3.05 466.89-3.05ZM501.59-26.33L507.04-26.33 495.19-14.48 508.41 0 502.89 0 489.94-14.38 501.59-26.33ZM485.26-36.93L489.46-37.45 489.46 0 485.26 0 485.26-36.93ZM535.98-11.68L518.28-11.68Q518.41-8.63 519.46-6.69 520.51-4.75 522.23-3.84 523.96-2.93 525.98-2.93L525.98-2.93Q528.01-2.93 529.64-3.53 531.28-4.13 533.01-5.3L533.01-5.3 534.98-2.53Q533.13-1.07 530.77-0.25 528.41 0.58 525.93 0.58L525.93 0.58Q522.11 0.58 519.41-1.15 516.71-2.88 515.3-5.96 513.88-9.05 513.88-13.13L513.88-13.13Q513.88-17.13 515.31-20.23 516.73-23.33 519.31-25.1 521.88-26.88 525.38-26.88L525.38-26.88Q528.71-26.88 531.11-25.31 533.51-23.75 534.8-20.86 536.08-17.98 536.08-13.98L536.08-13.98Q536.08-13.3 536.06-12.71 536.03-12.13 535.98-11.68L535.98-11.68ZM525.43-23.43L525.43-23.43Q522.51-23.43 520.55-21.35 518.58-19.28 518.31-14.93L518.31-14.93 532.03-14.93Q531.96-19.15 530.18-21.29 528.41-23.43 525.43-23.43ZM558.88 0L545.23 0 545.23-3.23 549.33-3.23 549.33-23.1 545.23-23.1 545.23-26.33 552.53-26.33 553.3-20.1Q554.83-23.35 557-25.13 559.18-26.9 562.75-26.9L562.75-26.9Q563.85-26.9 564.72-26.74 565.58-26.58 566.48-26.33L566.48-26.33 565.25-22.58Q564.43-22.8 563.75-22.91 563.08-23.03 562.2-23.03L562.2-23.03Q559.18-23.03 557-20.88 554.83-18.73 553.53-14.38L553.53-14.38 553.53-3.23 558.88-3.23 558.88 0ZM565.88-17.43L562.43-17.43 562.43-23.15 562.85-26.33 566.48-26.33 565.88-17.43Z" opacity="1" transform="matrix(1,0,0,1,0,0)" fill="#515151" class="undefined-text-1" data-fill-palette-color="secondary" id="text-1"></path></svg></g></svg></g></svg></g></svg></g><g><svg viewBox="0 0 112.65880045023923 112.7996325459864" height="112.7996325459864" width="112.65880045023923"><g><svg xmlns="http://www.w3.org/2000/svg" xmlns:xlink="http://www.w3.org/1999/xlink" version="1.1" x="0" y="0" viewBox="4.399993896484375 4.899993896484375 80 80.10000610351562" enable-background="new 0 0 90 90" xml:space="preserve" height="112.7996325459864" width="112.65880045023923" class="icon-icon-0" data-fill-palette-color="accent" id="icon-0"><path d="M81.6 59.6c0-0.1 0-0.1 0.1-0.2 1.6-4.2 2.6-8.8 2.7-13.6 0 0 0 0 0 0l0 0c0-0.3 0-0.6 0-0.9 0-22.1-17.9-40-40-40s-40 17.9-40 40c0 4.6 0.8 9 2.2 13.1l0 0c0 0 0 0 0 0C12 73.7 26.9 85 44.4 85c16.1 0 30-9.6 36.4-23.3 0-0.1 0.1-0.1 0.1-0.2C81.1 60.9 81.4 60.3 81.6 59.6zM77.9 45.9v-1.1h-1.1v1.1h-2.5v-1.1h-1.1v1.1h-2.5v-1.1h-1.1v1.1h-2.9v2.9H48.4v-4.7H56 57V43v-2.6c0.7-0.2 1.3-0.7 1.6-1.4h17.9c0.3 1.2 1.3 2.2 2.5 2.4 0.1 1.2 0.2 2.3 0.2 3.5 0 0.3 0 0.6 0 0.9H77.9zM44.4 10.1c15.9 0 29.3 10.7 33.5 25.2-0.1 0.1-0.2 0.1-0.3 0.2l-6.9-6.7v-0.3h-0.3l0 0 0 0H48.8V22h-5.4v6.5h-2.5V22h-5.4v6.5h-2.5V22h-5.4v6.5h-5.1c-0.2-1-1.2-1.8-2.3-1.8-1.3 0-2.3 1.1-2.3 2.4 0 1.1 0.8 2 1.8 2.3v2.2 1.1h1.1 18.8c0.2 1 1.2 1.8 2.3 1.8 1.3 0 2.3-1.1 2.3-2.4s-1-2.4-2.3-2.4c-1.1 0-2 0.8-2.3 1.8H20.7v-2.2c0.9-0.2 1.5-0.9 1.7-1.7h31.4V32h13.3v-2.4H70l7 6.7c-0.3 0.5-0.5 1-0.5 1.6H58.8c-0.1-1.2-1.1-2.2-2.3-2.2-1.3 0-2.3 1.1-2.3 2.4 0 1.1 0.8 2 1.8 2.3V43H38.3c-0.3-3.6-3.3-6.5-7-6.5-3.7 0-6.7 2.9-7 6.5h-1.8v-1.4-0.4-0.7h-3.6v-1.8h-8.6v4h8.6v-1.1h2.5V43v1.1 1.8h-2.5v-1.1h-8.6v4h8.6V47h3.6v-1.1-1.8h1.8c0.3 3.6 3.3 6.5 7 6.5 3.7 0 6.7-2.9 7-6.5h9v4.7 1.1h1.1 18.3v4.3H44.1C44 52.4 42.5 51 40.7 51c-1.8 0-3.3 1.4-3.4 3.2H23.9c-0.2-1-1.2-1.8-2.3-1.8-1.3 0-2.3 1.1-2.3 2.4s1 2.4 2.3 2.4c1.1 0 2-0.8 2.3-1.8h13.5c0.4 1.5 1.7 2.5 3.3 2.5 1.6 0 2.9-1.1 3.3-2.5h7v2h2.5v-2h13.3v4.3h-54c-2.1-4.5-3.2-9.4-3.2-14.7C9.5 25.7 25.1 10.1 44.4 10.1zM44.4 79.9c-13.6 0-25.4-7.8-31.1-19.2h29.4v6.4H48v-6.4h2.2v6.4h5.4v-6.4h2.2v6.4h5.4v-6.4h3.6v2.9h2.9v1.1h1.1v-1.1h2.5v1C66.9 73.8 56.4 79.9 44.4 79.9z" fill="#ff851b" data-fill-palette-color="accent"></path></svg></g></svg></g></svg></g><defs></defs></svg><rect width="395.52" height="83.22841151552899" fill="none" stroke="none" visibility="hidden"></rect></g></svg></g></svg>